HIERARCHY
ROOT Hips
{
	OFFSET -3.958830 18.904000 13.208200
	CHANNELS 6 Xposition Yposition Zposition Zrotation Yrotation Xrotation 
	JOINT LHipJoint
	{
		OFFSET 0.000000 0.000000 0.000000
		CHANNELS 3 Zrotation Yrotation Xrotation
		JOINT LeftUpLeg
		{
			OFFSET 1.800000 -1.400000 0.085000
			CHANNELS 3 Zrotation Yrotation Xrotation
			JOINT LeftLeg
			{
				OFFSET 2.215000 -6.000000 0.000000
				CHANNELS 3 Zrotation Yrotation Xrotation
				JOINT LeftFoot
				{
					OFFSET 2.500000 -6.900000 0.000000
					CHANNELS 3 Zrotation Yrotation Xrotation
					JOINT LeftToeBase
					{
						OFFSET 0.200000 -0.500000 1.950000
						CHANNELS 3 Zrotation Yrotation Xrotation
						End Site
						{
							OFFSET 0.000000 0.000000 0.000000
						}
					}
				}
			}
		}
	}
	JOINT RHipJoint
	{
		OFFSET 0.000000 0.000000 0.000000
		CHANNELS 3 Zrotation Yrotation Xrotation
		JOINT RightUpLeg
		{
			OFFSET -1.800000 -1.400000 0.085000
			CHANNELS 3 Zrotation Yrotation Xrotation
			JOINT RightLeg
			{
				OFFSET -2.215000 -6.000000 0.000000
				CHANNELS 3 Zrotation Yrotation Xrotation
				JOINT RightFoot
				{
					OFFSET -2.500000 -6.900000 0.000000
					CHANNELS 3 Zrotation Yrotation Xrotation
					JOINT RightToeBase
					{
						OFFSET -0.200000 -0.500000 1.950000
						CHANNELS 3 Zrotation Yrotation Xrotation
						End Site
						{
							OFFSET 0.000000 0.000000 0.000000
						}
					}
				}
			}
		}
	}
	JOINT LowerBack
	{
		OFFSET 0.000000 0.000000 0.000000
		CHANNELS 3 Zrotation Yrotation Xrotation
		JOINT Spine
		{
			OFFSET -0.087000 1.940000 -0.288900
			CHANNELS 3 Zrotation Yrotation Xrotation
			JOINT Spine1
			{
				OFFSET 0.000000 1.950000 0.060000
				CHANNELS 3 Zrotation Yrotation Xrotation
				JOINT Neck
				{
					OFFSET 0.000000 0.000000 0.000000
					CHANNELS 3 Zrotation Yrotation Xrotation
					JOINT Neck1
					{
						OFFSET 0.000000 1.600000 0.340000
						CHANNELS 3 Zrotation Yrotation Xrotation
						JOINT Head
						{
							OFFSET 0.000000 1.667000 -0.240000
							CHANNELS 3 Zrotation Yrotation Xrotation
							End Site
							{
								OFFSET 0.000000 0.000000 0.000000
							}
						}
					}
				}
				JOINT LeftShoulder
				{
					OFFSET 0.000000 0.000000 0.000000
					CHANNELS 3 Zrotation Yrotation Xrotation
					JOINT LeftArm
					{
						OFFSET 2.700000 1.550000 -0.730000
						CHANNELS 3 Zrotation Yrotation Xrotation
						JOINT LeftForeArm
						{
							OFFSET 5.450000 0.000000 0.000000
							CHANNELS 3 Zrotation Yrotation Xrotation
							JOINT LeftHand
							{
								OFFSET 3.450000 0.000000 0.000000
								CHANNELS 3 Zrotation Yrotation Xrotation
								JOINT LeftHandIndex1
								{
									OFFSET 0.750000 0.000000 0.000000
									CHANNELS 3 Zrotation Yrotation Xrotation
									End Site
									{
										OFFSET 0.000000 0.000000 0.000000
									}
								}
							}
						}
					}
				}
				JOINT RightShoulder
				{
					OFFSET 0.000000 0.000000 0.000000
					CHANNELS 3 Zrotation Yrotation Xrotation
					JOINT RightArm
					{
						OFFSET -2.700000 1.550000 -0.730000
						CHANNELS 3 Zrotation Yrotation Xrotation
						JOINT RightForeArm
						{
							OFFSET -5.450000 0.000000 0.000000
							CHANNELS 3 Zrotation Yrotation Xrotation
							JOINT RightHand
							{
								OFFSET -3.450000 0.000000 0.000000
								CHANNELS 3 Zrotation Yrotation Xrotation
								JOINT RightHandIndex1
								{
									OFFSET -0.750000 0.000000 0.000000
									CHANNELS 3 Zrotation Yrotation Xrotation
									End Site
									{
										OFFSET 0.000000 0.000000 0.000000
									}
								}
							}
						}
					}
				}
			}
		}
	}
}
MOTION
Frames: 13
Frame Time: 0.016667
-0.521650 16.270700 -1.213540 -4.366807 -46.501009 1.159264 -15.170709 13.577159 2.592576 8.727150 -0.219000 0.223690 -3.139910 5.016585 8.808673 -0.263835 4.879841 3.220728 0.705930 0.646010 0.371440 18.259925 -10.785599 2.791269 -4.835911 1.319220 -17.861501 5.647824 -3.412325 8.023709 0.033029 -3.221142 3.230553 0.625190 0.697050 0.510450 -3.599516 -1.854688 -6.693420 9.820004 -4.818922 6.172363 -5.507348 -4.655873 13.951824 3.455938 -0.445190 -6.917744 -1.249617 3.788815 24.111375 -4.627710 3.283830 -0.537680 -4.131813 -12.402500 0.975247 -14.718207 -31.696378 2.356072 48.590455 -46.202405 -19.650042 -4.071367 3.077895 -0.228100 0.703310 -0.248560 0.462430 -2.088074 11.441488 2.848028 11.962148 21.999099 -2.388812 -63.891908 50.908284 -30.201576 1.458574 -1.804569 -0.063560 0.143880 -0.284300 0.108360 
-0.521600 16.270520 -1.213880 -4.347683 -46.440709 1.150452 -15.170723 13.577638 2.592021 8.719450 -0.220834 0.201422 -3.126214 5.011384 8.810404 -0.267341 4.877294 3.221982 0.706990 0.649740 0.371950 18.259746 -10.787244 2.789802 -4.852150 1.314364 -17.868568 5.645371 -3.413929 8.054208 0.034549 -3.224553 3.228813 0.630050 0.698410 0.508170 -3.596798 -1.853651 -6.693127 9.807072 -4.816116 6.190149 -5.526131 -4.651827 13.857905 3.479202 -0.413669 -6.850155 -1.191326 3.762124 24.062576 -4.651140 3.280620 -0.520750 -3.900998 -12.219680 0.870599 -14.581974 -31.855508 2.477577 48.034365 -46.271826 -19.365709 -4.072856 3.083267 -0.231190 0.705650 -0.250500 0.462720 -2.361190 11.238352 2.783790 11.898610 22.031215 -2.283765 -63.542729 51.031658 -30.007933 1.456756 -1.810633 -0.065580 0.146170 -0.285480 0.108480 
-0.520770 16.270750 -1.215060 -4.328936 -46.319377 1.126507 -15.167906 13.578132 2.589343 8.714851 -0.228199 0.152300 -3.081734 4.999080 8.845894 -0.277537 4.875472 3.224019 0.710030 0.655070 0.371320 18.261279 -10.795430 2.787968 -4.881771 1.306016 -17.880119 5.650690 -3.427607 8.142386 0.037189 -3.236865 3.225065 0.638690 0.704440 0.506890 -3.600577 -1.842119 -6.691509 9.853603 -4.832934 6.246889 -5.661656 -4.655914 13.709523 3.532067 -0.362856 -6.736118 -1.091120 3.735399 23.952240 -4.676160 3.264710 -0.463830 -3.448400 -11.911498 0.674796 -14.199287 -32.086363 2.651710 46.937938 -46.402426 -18.808348 -4.077850 3.096858 -0.235450 0.712400 -0.256100 0.465510 -2.915529 10.886273 2.688571 11.875383 22.117483 -2.088015 -62.894645 51.175560 -29.640549 1.450915 -1.827281 -0.070080 0.150010 -0.286390 0.108480 
-0.519740 16.270770 -1.216640 -4.334086 -46.114096 1.112615 -15.164212 13.579408 2.583918 8.735308 -0.247922 0.068175 -3.011361 4.981255 8.902145 -0.288444 4.871893 3.226285 0.715270 0.660770 0.377100 18.263256 -10.803974 2.787501 -4.920900 1.293532 -17.865591 5.691125 -3.447703 8.214636 0.038948 -3.253557 3.217979 0.647750 0.708380 0.507770 -3.603927 -1.830381 -6.691097 9.918190 -4.873249 6.307765 -5.796864 -4.685774 13.515813 3.602663 -0.287368 -6.585949 -0.952145 3.665022 23.855944 -4.786310 3.265880 -0.383180 -2.772319 -11.493813 0.431284 -13.779956 -32.415907 2.917636 45.402986 -46.542035 -18.035267 -4.084490 3.118072 -0.241420 0.720320 -0.261020 0.466580 -3.723677 10.409598 2.541424 11.843691 22.306417 -1.800501 -61.732062 51.319707 -28.952536 1.448045 -1.855120 -0.073130 0.151220 -0.289340 0.106840 
-0.518280 16.271070 -1.219100 -4.334763 -45.874708 1.070911 -15.160281 13.579870 2.580845 8.788776 -0.266207 -0.000729 -2.988972 4.975865 8.935726 -0.300632 4.875249 3.226010 0.719650 0.664480 0.382430 18.265180 -10.812181 2.786421 -4.968050 1.275101 -17.825143 5.737190 -3.471670 8.280517 0.040243 -3.270994 3.211322 0.656230 0.712380 0.507820 -3.607014 -1.819616 -6.694793 10.002107 -4.903822 6.412589 -5.987981 -4.695068 13.311078 3.695708 -0.189003 -6.431281 -0.780497 3.554908 23.784102 -4.878780 3.230770 -0.335750 -1.983312 -11.064746 0.141083 -13.215073 -32.818430 3.198780 43.507515 -46.663003 -17.086563 -4.092146 3.141985 -0.245150 0.727580 -0.266310 0.466590 -4.694082 9.900283 2.416677 11.831448 22.403700 -1.521184 -60.304713 51.573465 -28.153589 1.441789 -1.882974 -0.077560 0.154340 -0.290180 0.103780 
-0.516100 16.272100 -1.222010 -4.329933 -45.591145 0.997948 -15.156586 13.585752 2.577841 8.834094 -0.282802 -0.073937 -2.936675 4.966514 8.993418 -0.313977 4.877861 3.225664 0.722520 0.665810 0.387130 18.266200 -10.819089 2.786141 -5.016396 1.247898 -17.731865 5.785815 -3.496373 8.312394 0.040529 -3.288854 3.205008 0.662980 0.716010 0.507510 -3.604779 -1.820315 -6.702775 10.086320 -4.950138 6.577176 -6.191929 -4.698771 13.096976 3.816834 -0.115972 -6.286612 -0.655557 3.423379 23.729046 -4.987480 3.172610 -0.318000 -1.114362 -10.622115 -0.135491 -12.656576 -33.154396 3.466190 41.604434 -46.992907 -16.219494 -4.097174 3.164151 -0.246520 0.733610 -0.270920 0.465800 -5.803742 9.406589 2.280885 11.677028 22.407043 -1.278520 -58.250525 52.068462 -27.069476 1.432745 -1.910955 -0.082770 0.158570 -0.289360 0.100050 
-0.512940 16.275350 -1.226120 -4.340489 -45.291593 0.882161 -15.152473 13.595101 2.575861 8.904081 -0.296571 -0.119756 -2.874812 4.959247 9.060010 -0.323221 4.876336 3.223072 0.727720 0.670320 0.396300 18.266964 -10.827520 2.785280 -5.041232 1.212246 -17.589125 5.796325 -3.516771 8.349569 0.037308 -3.301814 3.197355 0.668050 0.710830 0.507020 -3.600762 -1.825316 -6.714759 10.195472 -4.974810 6.804072 -6.434159 -4.662944 12.920879 3.967147 -0.032678 -6.151626 -0.528422 3.216953 23.773281 -5.107630 3.083250 -0.395600 -0.285864 -10.296452 -0.429618 -11.924058 -33.565105 3.686234 39.360763 -47.330545 -15.199373 -4.096607 3.191273 -0.245010 0.733070 -0.269510 0.461820 -6.940061 9.016966 2.183924 11.383754 22.252083 -1.113073 -55.684225 52.643695 -25.728003 1.428867 -1.943527 -0.083460 0.158790 -0.290700 0.095760 
-0.509520 16.279000 -1.230800 -4.343698 -44.963963 0.799790 -15.146850 13.604144 2.571445 8.966916 -0.315266 -0.242778 -2.823221 4.952898 9.169798 -0.336147 4.864553 3.221106 0.738810 0.684090 0.407200 18.268879 -10.836432 2.786009 -5.066681 1.183526 -17.511406 5.829393 -3.539128 8.412477 0.031903 -3.307579 3.192717 0.678320 0.701670 0.502610 -3.601546 -1.828557 -6.725768 10.320980 -5.008649 7.004696 -6.703570 -4.636882 12.684195 4.096174 0.073911 -5.981948 -0.372328 3.011935 23.863356 -5.130500 2.958040 -0.615540 0.599425 -9.922092 -0.753884 -11.246704 -34.069010 3.988022 36.856975 -47.597838 -14.039514 -4.090223 3.220399 -0.240290 0.727510 -0.263900 0.460300 -8.094024 8.550335 2.037616 11.155787 22.152974 -0.864838 -52.611915 53.353268 -24.166283 1.425544 -1.980212 -0.083670 0.163380 -0.295300 0.092050 
-0.506030 16.283630 -1.236160 -4.309064 -44.620785 0.668301 -15.143216 13.620064 2.566686 8.993292 -0.326515 -0.372542 -2.734423 4.941296 9.324220 -0.348050 4.847619 3.219769 0.752240 0.701600 0.419970 18.268420 -10.845475 2.783765 -5.111977 1.147138 -17.428259 5.833743 -3.564440 8.509385 0.023555 -3.310974 3.189497 0.688270 0.689770 0.499620 -3.591376 -1.844503 -6.736816 10.356427 -5.015960 7.220002 -6.917110 -4.588819 12.450766 4.239273 0.228604 -5.797348 -0.154071 2.756585 24.048567 -5.193910 2.843240 -0.912390 1.416816 -9.647499 -1.117444 -10.429610 -34.707596 4.310800 33.874471 -47.762649 -12.631615 -4.083222 3.253988 -0.233260 0.720230 -0.253340 0.460270 -9.203660 8.152695 1.900392 10.821234 21.981996 -0.615831 -48.817285 54.150087 -22.266907 1.425692 -2.025698 -0.081330 0.168140 -0.302010 0.088980 
-0.501510 16.289470 -1.241550 -4.323394 -44.301909 0.567450 -15.138649 13.635140 2.563302 9.051462 -0.343919 -0.496262 -2.670776 4.933760 9.453917 -0.356034 4.832789 3.217826 0.765320 0.714860 0.434400 18.269116 -10.852993 2.782348 -5.103442 1.120963 -17.348581 5.812091 -3.585302 8.615252 0.012993 -3.307922 3.187400 0.693450 0.675280 0.499320 -3.586334 -1.862096 -6.749338 10.429929 -5.040108 7.416616 -7.080275 -4.566479 12.285289 4.334164 0.385905 -5.664866 0.050199 2.535425 24.357704 -5.210110 2.753650 -1.209500 2.276186 -9.489771 -1.395200 -9.640111 -35.197835 4.581131 30.831192 -47.927651 -11.223618 -4.070933 3.289937 -0.221680 0.709360 -0.239260 0.460320 -10.261821 7.863077 1.780799 10.430986 21.850846 -0.361632 -44.662562 54.768662 -20.166351 1.434619 -2.079296 -0.077490 0.169830 -0.309400 0.085330 
-0.498140 16.295710 -1.246090 -4.351907 -44.042988 0.515984 -15.134361 13.645962 2.560586 9.102406 -0.361563 -0.612703 -2.618649 4.924347 9.549857 -0.366033 4.817658 3.215900 0.776290 0.723620 0.448520 18.270308 -10.859864 2.781991 -5.068809 1.107353 -17.299945 5.779433 -3.602372 8.712790 0.003421 -3.301647 3.187180 0.695960 0.659630 0.498760 -3.584191 -1.872264 -6.760161 10.490988 -5.060175 7.515447 -7.212160 -4.553108 12.179913 4.422659 0.564025 -5.581652 0.280964 2.346802 24.760440 -5.254570 2.731580 -1.472650 3.112319 -9.425427 -1.604347 -8.908126 -35.561973 4.820271 27.936977 -48.042220 -9.884019 -4.056840 3.322927 -0.206400 0.698120 -0.225590 0.459270 -11.279497 7.660416 1.694341 10.110536 21.831606 -0.037786 -40.291444 55.130402 -17.936563 1.447305 -2.138159 -0.075850 0.169690 -0.315800 0.079030 
-0.494330 16.302460 -1.250010 -4.382032 -43.855921 0.471917 -15.131848 13.657306 2.559331 9.134626 -0.372789 -0.711999 -2.580837 4.919089 9.634469 -0.371148 4.802463 3.213608 0.784500 0.729460 0.460850 18.270208 -10.863747 2.781257 -5.037691 1.097984 -17.266218 5.745999 -3.618140 8.802159 -0.005841 -3.292424 3.188211 0.694250 0.643340 0.499590 -3.578255 -1.888141 -6.770577 10.493999 -5.080928 7.571343 -7.252872 -4.555427 12.181709 4.484540 0.748828 -5.566686 0.512644 2.207410 25.257571 -5.288850 2.767720 -1.706550 3.998888 -9.462200 -1.713138 -8.362005 -35.802400 5.018922 25.402716 -48.031995 -8.711758 -4.041291 3.351687 -0.191530 0.686480 -0.211200 0.456880 -12.288788 7.567772 1.640670 9.866423 21.939228 0.332214 -35.900615 55.146791 -15.664948 1.464244 -2.195795 -0.071860 0.166800 -0.320840 0.073310 
-0.490670 16.307420 -1.252240 -4.411053 -43.675462 0.514855 -15.130335 13.664925 2.556627 9.136058 -0.386847 -0.862713 -2.539229 4.905183 9.692023 -0.379863 4.782527 3.212524 0.787150 0.732610 0.468920 18.270181 -10.864137 2.781569 -5.021535 1.101785 -17.317676 5.747188 -3.634194 8.882497 -0.010788 -3.282252 3.188289 0.693330 0.630240 0.499030 -3.572655 -1.901539 -6.776417 10.482422 -5.106696 7.491561 -7.216596 -4.582071 12.205942 4.520415 0.933133 -5.580461 0.744476 2.067015 25.731125 -5.405770 2.834940 -1.875450 4.976078 -9.473091 -1.782050 -8.250358 -36.056630 5.360484 22.998161 -48.072764 -7.631521 -4.028737 3.375351 -0.180980 0.678960 -0.200230 0.452220 -13.332728 7.465551 1.587886 9.878001 22.259284 0.829142 -31.794765 54.742215 -13.491139 1.480569 -2.248690 -0.070480 0.165340 -0.322150 0.067880 
